<?xml version="1.0" encoding="UTF-8" standalone="no"?>
<svg
   version="1.0"
   width="50pt"
   height="50pt"
   viewBox="0 0 50 50"
   preserveAspectRatio="xMidYMid"
   id="svg3"
   sodipodi:docname="checking-gauges.svg"
   inkscape:version="1.3.2 (091e20e, 2023-11-25, custom)"
   xmlns:inkscape="http://www.inkscape.org/namespaces/inkscape"
   xmlns:sodipodi="http://sodipodi.sourceforge.net/DTD/sodipodi-0.dtd"
   xmlns="http://www.w3.org/2000/svg"
   xmlns:svg="http://www.w3.org/2000/svg">
  <defs
     id="defs3" />
  <sodipodi:namedview
     id="namedview3"
     pagecolor="#ffffff"
     bordercolor="#000000"
     borderopacity="0.25"
     inkscape:showpageshadow="2"
     inkscape:pageopacity="0.0"
     inkscape:pagecheckerboard="0"
     inkscape:deskcolor="#d1d1d1"
     inkscape:document-units="pt"
     inkscape:zoom="7.078125"
     inkscape:cx="69.651214"
     inkscape:cy="40.618102"
     inkscape:window-width="1600"
     inkscape:window-height="837"
     inkscape:window-x="-8"
     inkscape:window-y="-8"
     inkscape:window-maximized="1"
     inkscape:current-layer="svg3" />
  <g
     transform="matrix(0.01029521,0,0,-0.01029521,-1.363459,51.356344)"
     fill="#000000"
     stroke="none"
     id="g3">
    <path
       d="M 2280,4974 C 1505,4857 875,4306 665,3562 c -53,-190 -68,-309 -68,-537 0,-228 15,-347 68,-537 160,-566 576,-1040 1117,-1271 58,-25 138,-56 177,-67 55,-17 72,-27 76,-43 3,-12 19,-88 35,-170 16,-81 34,-156 40,-167 6,-11 24,-27 40,-35 l 30,-15 2,-293 3,-292 24,-3 c 13,-2 28,2 32,10 5,7 9,140 9,296 v 282 h 310 310 V 438 c 0,-156 4,-289 9,-296 4,-8 19,-12 32,-10 l 24,3 3,292 2,293 30,15 c 40,21 46,36 69,161 20,114 17,134 -20,134 -25,0 -28,-8 -49,-121 -10,-56 -22,-105 -27,-110 -5,-5 -73,-8 -154,-7 l -144,3 47,28 c 72,42 145,123 181,199 20,43 38,68 48,68 44,0 262,64 375,109 635,255 1080,808 1206,1499 30,168 30,486 0,654 -78,426 -259,775 -558,1072 -302,300 -687,491 -1113,550 -139,20 -420,19 -551,0 z m 658,-88 c 374,-80 694,-251 955,-510 312,-310 501,-698 552,-1131 19,-164 19,-276 0,-440 -84,-715 -557,-1315 -1235,-1565 -333,-123 -757,-145 -1105,-59 -541,135 -995,497 -1243,994 -268,538 -267,1166 3,1705 222,443 625,792 1090,944 243,79 363,96 640,92 190,-3 236,-7 343,-30 z"
       id="path1" />
    <path
       d="M 2336,4684 C 1546,4577 941,3928 891,3137 837,2284 1408,1547 2251,1378 c 148,-29 451,-32 596,-5 263,49 505,154 716,310 110,80 276,251 360,367 79,112 185,319 226,445 111,337 111,723 0,1060 -41,126 -147,333 -226,445 -84,116 -250,285 -363,369 -352,260 -795,374 -1224,315 z m 276,-231 3,-58 99,-12 c 259,-32 489,-127 684,-281 37,-28 73,-55 80,-58 8,-4 29,8 51,30 20,20 41,36 47,36 15,0 64,-54 64,-70 0,-8 -16,-31 -36,-51 l -36,-37 55,-69 c 176,-219 256,-423 303,-770 5,-31 6,-32 62,-35 l 57,-3 v -50 -50 l -56,-3 c -62,-3 -69,-11 -69,-78 0,-17 -7,-70 -15,-116 -38,-218 -149,-455 -293,-626 l -45,-53 37,-38 c 20,-20 36,-44 36,-52 0,-17 -50,-69 -66,-69 -12,0 -154,144 -154,155 0,4 32,41 70,82 202,216 314,488 327,794 16,348 -109,676 -354,930 -183,189 -423,318 -683,365 -110,20 -329,20 -440,0 -252,-45 -478,-164 -666,-351 -183,-182 -296,-390 -351,-648 -23,-103 -25,-368 -4,-472 46,-234 160,-460 313,-621 37,-39 68,-75 68,-79 0,-11 -142,-155 -154,-155 -16,0 -66,52 -66,69 0,8 16,32 36,52 l 37,38 -45,53 c -62,72 -142,197 -184,286 -65,136 -124,351 -124,451 0,73 -6,80 -69,83 l -56,3 v 50 50 l 57,3 c 56,3 57,4 62,35 47,347 127,551 303,770 l 55,69 -36,37 c -20,20 -36,43 -36,51 0,16 49,70 64,70 6,0 27,-16 47,-36 22,-22 43,-34 51,-30 7,3 43,30 80,58 195,154 425,249 684,281 l 99,12 3,58 3,57 h 49 49 z m 209,-1074 c 26,-16 58,-44 72,-62 24,-31 57,-91 57,-102 0,-3 -37,-23 -82,-44 -46,-21 -100,-51 -122,-67 -35,-27 -38,-33 -40,-81 -2,-89 -65,-147 -158,-144 l -50,1 -280,-268 c -338,-322 -342,-325 -368,-317 -49,15 -25,47 272,360 l 293,308 v 56 c 0,94 56,151 147,151 41,0 50,4 72,33 29,38 78,129 94,175 14,40 32,41 93,1 z"
       id="path2" />
    <path
       d="m 2501,3074 c -27,-35 -26,-66 2,-100 17,-20 33,-27 57,-27 24,0 40,7 57,27 28,34 29,65 2,100 -16,20 -29,26 -59,26 -30,0 -43,-6 -59,-26 z"
       id="path3" />
  </g>
</svg>
