<?xml version="1.0" encoding="UTF-8" standalone="no"?>
<svg
   version="1.0"
   width="50pt"
   height="50pt"
   viewBox="0 0 50 50"
   preserveAspectRatio="xMidYMid"
   id="svg3"
   sodipodi:docname="design.svg"
   inkscape:version="1.3.2 (091e20e, 2023-11-25, custom)"
   xmlns:inkscape="http://www.inkscape.org/namespaces/inkscape"
   xmlns:sodipodi="http://sodipodi.sourceforge.net/DTD/sodipodi-0.dtd"
   xmlns="http://www.w3.org/2000/svg"
   xmlns:svg="http://www.w3.org/2000/svg">
  <defs
     id="defs3" />
  <sodipodi:namedview
     id="namedview3"
     pagecolor="#ffffff"
     bordercolor="#000000"
     borderopacity="0.25"
     inkscape:showpageshadow="2"
     inkscape:pageopacity="0.0"
     inkscape:pagecheckerboard="0"
     inkscape:deskcolor="#d1d1d1"
     inkscape:document-units="pt"
     inkscape:zoom="5.0049902"
     inkscape:cx="61.938183"
     inkscape:cy="22.877168"
     inkscape:window-width="1600"
     inkscape:window-height="837"
     inkscape:window-x="-8"
     inkscape:window-y="-8"
     inkscape:window-maximized="1"
     inkscape:current-layer="svg3"
     showborder="false" />
  <g
     transform="matrix(0.00976673,0,0,-0.00976673,0,50.114611)"
     fill="#000000"
     stroke="none"
     id="g3">
    <path
       d="M 2475,5097 C 2391,5057 97,3819 68,3799 35,3775 0,3704 0,3662 c 0,-17 7,-49 15,-69 16,-37 43,-52 1280,-706 l 1265,-669 1265,669 1264,668 17,42 c 36,91 -1,172 -104,232 -37,21 -588,318 -1225,661 -1278,688 -1205,654 -1302,607 z"
       id="path1" />
    <path
       d="M 261,2810 C 160,2755 68,2702 57,2693 29,2668 0,2601 0,2560 c 0,-19 8,-50 18,-69 15,-30 135,-96 1280,-702 l 1262,-668 1263,668 c 1144,606 1264,672 1279,702 35,67 10,164 -53,211 -43,31 -373,208 -389,208 -6,0 -440,-227 -963,-504 -1175,-622 -1085,-576 -1137,-576 -52,0 38,-46 -1137,576 -523,277 -957,504 -965,504 -7,0 -96,-45 -197,-100 z"
       id="path2" />
    <path
       d="M 268,1717 C 165,1661 70,1604 56,1591 -22,1518 -12,1383 75,1318 87,1309 639,1009 1301,653 2480,18 2506,5 2560,5 c 54,0 79,13 1215,624 638,343 1190,641 1227,662 73,43 107,86 115,149 7,50 -17,117 -55,152 -15,14 -111,71 -214,127 L 4661,1820 3638,1278 C 2645,751 2613,736 2560,736 c -53,0 -85,16 -1078,542 -563,298 -1024,542 -1025,541 -1,0 -86,-46 -189,-102 z"
       id="path3" />
  </g>
</svg>
