<?xml version="1.0" encoding="UTF-8" standalone="no"?>
<svg
   version="1.0"
   width="352.000000pt"
   height="352.000000pt"
   viewBox="0 0 352.000000 352.000000"
   preserveAspectRatio="xMidYMid meet"
   id="svg6"
   sodipodi:docname="icon_logo_hawk-re.svg"
   inkscape:version="1.3.2 (091e20e, 2023-11-25, custom)"
   xmlns:inkscape="http://www.inkscape.org/namespaces/inkscape"
   xmlns:sodipodi="http://sodipodi.sourceforge.net/DTD/sodipodi-0.dtd"
   xmlns="http://www.w3.org/2000/svg"
   xmlns:svg="http://www.w3.org/2000/svg">
  <defs
     id="defs6" />
  <sodipodi:namedview
     id="namedview6"
     pagecolor="#ffffff"
     bordercolor="#000000"
     borderopacity="0.25"
     inkscape:showpageshadow="2"
     inkscape:pageopacity="0.0"
     inkscape:pagecheckerboard="0"
     inkscape:deskcolor="#d1d1d1"
     inkscape:document-units="pt"
     inkscape:zoom="1.365767"
     inkscape:cx="234.66667"
     inkscape:cy="234.66667"
     inkscape:window-width="1600"
     inkscape:window-height="837"
     inkscape:window-x="-8"
     inkscape:window-y="-8"
     inkscape:window-maximized="1"
     inkscape:current-layer="svg6" />
  <g
     transform="matrix(0.10494931,0,0,-0.10498061,-9.3404888,361.23829)"
     fill="#000000"
     stroke="none"
     id="g6"
     style="fill:#1d1d1f;fill-opacity:1">
    <path
       d="m 1570,3429 c -313,-41 -605,-163 -852,-357 -32,-25 -58,-48 -58,-52 0,-14 171,-175 185,-174 7,1 40,22 73,48 74,59 233,147 334,186 98,38 253,77 343,87 l 70,8 v 130 c 0,147 7,138 -95,124 z"
       id="path1"
       style="fill:#1d1d1f;fill-opacity:1" />
    <path
       d="m 1869,3321 c -1,-67 -2,-127 -3,-133 -1,-9 23,-16 69,-21 225,-24 487,-129 677,-271 40,-31 78,-56 83,-56 6,0 51,40 100,90 l 89,89 -29,23 c -161,130 -397,261 -572,317 -92,30 -248,63 -355,76 l -58,6 z"
       id="path2"
       style="fill:#1d1d1f;fill-opacity:1" />
    <path
       d="M 434,2778 C 320,2626 260,2520 199,2361 142,2215 76,1890 98,1868 c 5,-5 64,-7 133,-6 l 123,3 13,95 c 31,231 143,498 279,665 24,30 44,59 44,64 0,9 -165,174 -179,179 -5,1 -39,-39 -77,-90 z"
       id="path3"
       style="fill:#1d1d1f;fill-opacity:1" />
    <path
       d="m 2925,2780 -89,-89 45,-58 c 169,-219 245,-409 295,-741 l 5,-33 127,3 127,3 -3,70 c -9,216 -121,536 -261,745 -60,90 -138,190 -149,190 -4,0 -48,-40 -97,-90 z"
       id="path4"
       style="fill:#1d1d1f;fill-opacity:1" />
    <path
       d="m 1645,2654 c -107,-21 -144,-32 -240,-69 -138,-53 -314,-141 -322,-160 -3,-8 -40,-33 -83,-56 -43,-22 -86,-49 -96,-60 -17,-18 -16,-19 14,-19 45,0 46,-13 4,-52 -20,-19 -65,-61 -100,-93 -58,-54 -84,-97 -68,-112 4,-4 13,3 22,15 14,20 44,31 44,16 0,-3 -20,-38 -44,-77 -80,-134 -93,-167 -55,-147 11,7 27,9 35,6 9,-3 17,7 24,33 14,52 39,82 93,109 56,28 147,47 183,38 33,-9 28,-13 -42,-42 -79,-32 -127,-68 -174,-130 -24,-32 -45,-51 -54,-48 -10,4 -15,-20 -20,-113 -8,-129 -23,-215 -61,-367 -40,-158 -42,-282 -9,-438 11,-51 -19,-31 -81,54 -71,99 -151,254 -187,363 -31,94 -68,267 -68,319 v 36 H 225 89 l 6,-52 c 24,-208 82,-412 163,-576 77,-156 225,-372 255,-372 7,0 64,52 127,115 63,63 119,115 125,115 6,0 39,-29 75,-65 L 904,761 779,634 655,508 700,469 C 918,276 1327,108 1602,97 l 63,-2 5,174 5,175 h 95 l 95,-1 3,-177 2,-178 68,7 c 228,23 496,110 680,222 119,72 263,183 255,196 -4,7 -46,57 -93,112 -171,198 -354,466 -445,650 -105,212 -137,357 -97,447 25,57 59,79 79,52 7,-10 13,-12 13,-6 0,7 6,12 14,12 8,0 39,28 71,62 62,67 87,77 200,78 h 60 l -24,19 c -105,81 -414,87 -770,15 -29,-6 -33,-5 -29,12 5,27 103,60 240,80 194,28 428,8 552,-49 97,-45 165,-127 166,-199 0,-16 4,-28 10,-28 19,0 35,87 35,190 0,94 -3,111 -28,165 -15,33 -42,75 -60,94 -60,63 -183,137 -281,171 -38,13 -55,25 -69,51 -60,109 -208,181 -432,208 -85,10 -296,13 -340,5 z m 193,-264 c 81,-11 166,-22 190,-26 23,-3 42,-10 42,-15 0,-12 -61,-39 -88,-39 -12,0 -24,-14 -36,-40 -32,-72 -117,-120 -189,-105 -125,26 -227,179 -155,229 29,21 58,20 236,-4 z m 638,-122 c -11,-58 -85,-101 -114,-65 -24,30 42,97 97,97 21,0 23,-3 17,-32 z m -1228,-39 c -5,-14 -36,-30 -123,-65 -84,-33 -198,-96 -243,-136 -33,-29 -52,-29 -52,-2 0,30 90,112 163,147 95,47 264,84 255,56 z m 330,-97 c 92,-34 66,-41 -149,-39 -145,1 -203,5 -206,14 -16,48 243,66 355,25 z m 7,-122 c -10,-11 -22,-20 -27,-20 -5,0 -74,-31 -154,-70 -79,-38 -150,-70 -158,-70 -41,0 -23,36 43,84 70,51 189,93 270,95 43,1 44,1 26,-19 z m -456,-109 c 17,-11 6,-31 -18,-31 -54,0 -182,-97 -258,-197 -27,-35 -53,-43 -53,-18 0,30 51,116 98,163 41,43 75,64 132,85 24,9 84,7 99,-2 z m 563,-71 c -53,-44 -348,-114 -378,-89 -10,8 -11,15 -4,24 18,22 278,83 360,84 h 45 z m 228,-18 c 0,-41 -152,-130 -276,-160 -117,-29 -189,-35 -204,-17 -14,17 -20,14 95,46 89,24 243,83 320,123 60,31 65,31 65,8 z m 160,-51 c 0,-14 -101,-96 -160,-129 -30,-17 -79,-40 -109,-52 -58,-22 -191,-43 -216,-34 -24,10 -17,33 13,40 82,18 225,72 324,123 110,57 148,70 148,52 z m -920,-40 c 0,-27 -70,-94 -161,-155 -79,-53 -102,-80 -124,-147 -9,-27 -21,-47 -26,-43 -13,8 -11,108 2,138 7,15 52,49 115,87 57,34 118,77 136,96 30,31 58,43 58,24 z m 200,-64 c 0,-33 -50,-99 -96,-128 -28,-17 -55,-24 -103,-25 l -66,-3 -45,-60 c -61,-81 -117,-186 -160,-300 -20,-52 -41,-96 -47,-98 -17,-6 -26,52 -18,116 9,75 46,162 95,227 51,67 154,154 183,154 31,0 130,53 190,101 58,45 67,48 67,16 z m 420,-168 c 0,-27 -62,-105 -104,-130 -37,-23 -106,-26 -106,-5 0,8 38,40 85,71 46,31 89,63 96,71 17,20 29,17 29,-7 z m 258,-78 c 5,-49 -16,-134 -50,-203 -48,-95 -173,-210 -193,-177 -7,11 13,47 72,129 57,79 143,242 143,271 0,33 25,16 28,-20 z m -838,18 c 0,-5 -16,-31 -36,-57 -45,-58 -156,-286 -219,-449 -26,-68 -51,-123 -56,-123 -5,0 -9,17 -9,38 0,113 60,305 130,419 66,108 190,220 190,172 z m 930,-183 c -16,-158 -41,-225 -113,-303 -58,-63 -147,-106 -147,-70 0,7 23,44 51,82 62,85 133,225 160,320 11,39 26,80 32,93 l 11,23 8,-22 c 5,-12 4,-67 -2,-123 z m -767,103 c -4,-35 -76,-177 -117,-231 -44,-57 -104,-97 -116,-78 -11,18 5,47 83,152 36,48 80,110 98,138 34,52 56,60 52,19 z m 846,-7 c 17,-33 34,-183 27,-253 -9,-97 -38,-168 -70,-169 -9,0 -3,231 10,370 7,71 15,85 33,52 z m -597,-229 c -79,-190 -71,-176 -89,-162 -19,17 -11,102 16,163 25,57 88,123 103,108 8,-8 0,-37 -30,-109 z m -255,-65 c -3,-13 -12,-46 -20,-75 -8,-28 -18,-84 -22,-123 -6,-57 -10,-70 -23,-68 -37,7 -51,152 -20,212 30,60 96,101 85,54 z"
       id="path5"
       style="fill:#1d1d1f;fill-opacity:1" />
    <path
       d="m 3176,1638 c -3,-13 -6,-36 -6,-51 0,-15 -7,-62 -16,-104 -39,-190 -133,-400 -249,-556 -36,-48 -65,-89 -65,-92 0,-2 41,-44 92,-93 l 92,-90 51,63 c 193,235 329,567 361,878 l 7,67 h -130 c -127,0 -131,-1 -137,-22 z"
       id="path6"
       style="fill:#1d1d1f;fill-opacity:1" />
  </g>
</svg>
