<?xml version="1.0" encoding="UTF-8" standalone="no"?>
<svg
   version="1.0"
   width="50pt"
   height="50pt"
   viewBox="0 0 50 50"
   preserveAspectRatio="xMidYMid"
   id="svg12"
   sodipodi:docname="jigs.svg"
   inkscape:version="1.3.2 (091e20e, 2023-11-25, custom)"
   xmlns:inkscape="http://www.inkscape.org/namespaces/inkscape"
   xmlns:sodipodi="http://sodipodi.sourceforge.net/DTD/sodipodi-0.dtd"
   xmlns="http://www.w3.org/2000/svg"
   xmlns:svg="http://www.w3.org/2000/svg">
  <defs
     id="defs12" />
  <sodipodi:namedview
     id="namedview12"
     pagecolor="#ffffff"
     bordercolor="#000000"
     borderopacity="0.25"
     inkscape:showpageshadow="2"
     inkscape:pageopacity="0.0"
     inkscape:pagecheckerboard="0"
     inkscape:deskcolor="#d1d1d1"
     inkscape:document-units="pt"
     inkscape:zoom="7.078125"
     inkscape:cx="39.417219"
     inkscape:cy="43.161148"
     inkscape:window-width="1600"
     inkscape:window-height="837"
     inkscape:window-x="-8"
     inkscape:window-y="-8"
     inkscape:window-maximized="1"
     inkscape:current-layer="svg12" />
  <g
     transform="matrix(0.0107799,0,0,-0.0107799,-2.6059345,44.844403)"
     fill="#000000"
     stroke="none"
     id="g12">
    <path
       d="m 3020,3915 v -245 h 85 85 v 245 245 h -85 -85 z"
       id="path1" />
    <path
       d="m 3356,4153 c -3,-4 -6,-140 -6,-303 v -297 l -23,-21 c -15,-14 -36,-22 -60,-22 h -37 v -137 c -1,-149 -5,-164 -54,-183 -15,-5 -83,-10 -152,-10 h -124 v -335 -335 h 420 420 v 463 c 0,254 -5,513 -11,576 -24,261 -109,463 -228,546 -44,30 -136,67 -145,58 z"
       id="path2" />
    <path
       d="m 1960,3880 v -251 l 88,3 87,3 v 245 245 l -87,3 -88,3 z"
       id="path3" />
    <path
       d="m 1723,4099 c -142,-55 -244,-224 -290,-480 -16,-92 -18,-163 -18,-624 v -520 l 418,-3 417,-2 v 340 340 h -140 c -136,0 -142,1 -165,25 -24,23 -25,29 -25,160 v 135 h -35 c -25,0 -44,8 -60,25 l -25,24 v 301 c 0,234 -3,300 -12,299 -7,0 -36,-9 -65,-20 z"
       id="path4" />
    <path
       d="m 3892,3543 c 3,-43 7,-124 7,-180 l 1,-103 h 441 441 l -98,113 c -54,61 -125,142 -158,180 l -59,67 h -291 -292 z"
       id="path5" />
    <path
       d="m 3900,2805 v -295 h 490 490 v 295 295 h -490 -490 z"
       id="path6" />
    <path
       d="m 455,3077 c -67,-23 -101,-44 -142,-91 -70,-80 -90,-189 -53,-288 28,-74 70,-122 142,-157 102,-52 213,-41 304,28 132,101 151,292 42,416 -74,84 -199,123 -293,92 z"
       id="path7" />
    <path
       d="m 967,2913 c 4,-21 8,-72 8,-113 0,-41 -4,-92 -8,-112 l -8,-38 h 146 145 v 150 150 H 1105 959 Z"
       id="path8" />
    <path
       d="m 2410,2800 v -150 h 165 165 v 150 150 h -165 -165 z"
       id="path9" />
    <path
       d="m 3360,2215 v -135 h 530 530 v 135 135 h -530 -530 z"
       id="path10" />
    <path
       d="m 3190,1901 c -58,-31 -75,-71 -75,-181 v -95 h 775 775 v 95 c 0,77 -4,102 -20,130 -43,73 -12,70 -755,70 -630,0 -667,-1 -700,-19 z"
       id="path11" />
    <path
       d="M 1410,1210 V 960 h 1735 1735 v 250 250 H 3145 1410 Z"
       id="path12" />
  </g>
</svg>
