<?xml version="1.0" encoding="UTF-8" standalone="no"?>
<!-- Uploaded to: SVG Repo, www.svgrepo.com, Transformed by: SVG Repo Mixer Tools -->

<svg
   version="1.1"
   id="Capa_1"
   viewBox="0 0 143.75 143.75"
   xml:space="preserve"
   width="250"
   height="250"
   fill="#000000"
   stroke="#000000"
   sodipodi:docname="machinery-svgrepo-com.svg"
   inkscape:version="1.3.2 (091e20e, 2023-11-25, custom)"
   xmlns:inkscape="http://www.inkscape.org/namespaces/inkscape"
   xmlns:sodipodi="http://sodipodi.sourceforge.net/DTD/sodipodi-0.dtd"
   xmlns="http://www.w3.org/2000/svg"
   xmlns:svg="http://www.w3.org/2000/svg"><defs
   id="defs1" /><sodipodi:namedview
   id="namedview1"
   pagecolor="#ffffff"
   bordercolor="#000000"
   borderopacity="0.25"
   inkscape:showpageshadow="2"
   inkscape:pageopacity="0.0"
   inkscape:pagecheckerboard="0"
   inkscape:deskcolor="#d1d1d1"
   showborder="false"
   inkscape:zoom="1.1331386"
   inkscape:cx="255.48507"
   inkscape:cy="197.23977"
   inkscape:window-width="1600"
   inkscape:window-height="837"
   inkscape:window-x="-8"
   inkscape:window-y="-8"
   inkscape:window-maximized="1"
   inkscape:current-layer="Capa_1" />

<g
   id="SVGRepo_bgCarrier"
   stroke-width="0" />

<g
   id="SVGRepo_tracerCarrier"
   stroke-linecap="round"
   stroke-linejoin="round" />

<g
   id="SVGRepo_iconCarrier"
   transform="matrix(0.31290597,0,0,0.31290597,-0.34319797,-0.34319797)"> <g
   id="XMLID_1612_"> <path
   id="XMLID_1613_"
   style="fill:#1a1835"
   d="m 210,330 c 0,-11.05 8.95,-20 20,-20 V 240 H 40 v 180 h 190 v -70 c -11.05,0 -20,-8.95 -20,-20 z M 90,350 c -11.046,0 -20,-8.954 -20,-20 0,-11.046 8.954,-20 20,-20 11.046,0 20,8.954 20,20 0,11.046 -8.954,20 -20,20 z m 70,0 c -11.046,0 -20,-8.954 -20,-20 0,-11.046 8.954,-20 20,-20 11.046,0 20,8.954 20,20 0,11.046 -8.954,20 -20,20 z" /> <rect
   id="XMLID_1617_"
   x="270"
   y="30"
   style="fill:#606060"
   width="150"
   height="60" /> <rect
   id="XMLID_1618_"
   x="40"
   y="30"
   style="fill:#8f8f8f"
   width="150"
   height="60" /> <rect
   id="XMLID_1619_"
   y="30"
   style="fill:#e8e8e8"
   width="40"
   height="130"
   x="0" /> <rect
   id="XMLID_1620_"
   y="160"
   style="fill:#bfbfbf"
   width="40"
   height="80"
   x="0" /> <rect
   id="XMLID_1621_"
   y="360"
   style="fill:#bfbfbf"
   width="40"
   height="30"
   x="0" /> <rect
   id="XMLID_1622_"
   y="270"
   style="fill:#bfbfbf"
   width="40"
   height="60"
   x="0" /> <rect
   id="XMLID_1623_"
   x="420"
   y="30"
   style="fill:#bfbfbf"
   width="40"
   height="130" /> <rect
   id="XMLID_1624_"
   x="420"
   y="160"
   style="fill:#8f8f8f"
   width="40"
   height="80" /> <rect
   id="XMLID_1625_"
   x="40"
   y="420"
   style="fill:#bbc3ec"
   width="30"
   height="40" /> <rect
   id="XMLID_1626_"
   x="390"
   y="420"
   style="fill:#121226"
   width="30"
   height="40" /> <rect
   id="XMLID_1627_"
   x="205"
   y="90"
   style="fill:#606060"
   width="50"
   height="30" /> <rect
   id="XMLID_1628_"
   x="215"
   y="120"
   style="fill:#8f8f8f"
   width="30"
   height="30" /> <path
   id="XMLID_1629_"
   style="fill:#bbc3ec"
   d="m 230,310 c 11.05,0 20,8.95 20,20 0,11.05 -8.95,20 -20,20 v 70 H 420 V 240 H 230 Z m 140,0 c 11.046,0 20,8.954 20,20 0,11.046 -8.954,20 -20,20 -11.046,0 -20,-8.954 -20,-20 0,-11.046 8.954,-20 20,-20 z m -70,0 c 11.046,0 20,8.954 20,20 0,11.046 -8.954,20 -20,20 -11.046,0 -20,-8.954 -20,-20 0,-11.046 8.954,-20 20,-20 z" /> <rect
   id="XMLID_1633_"
   x="230"
   y="190"
   style="fill:#bfbfbf"
   width="190"
   height="50" /> <rect
   id="XMLID_1634_"
   x="230"
   style="fill:#bfbfbf"
   width="40"
   height="90"
   y="0" /> <rect
   id="XMLID_1635_"
   x="40"
   y="190"
   style="fill:#e8e8e8"
   width="190"
   height="50" /> <rect
   id="XMLID_1636_"
   x="190"
   style="fill:#e8e8e8"
   width="40"
   height="90"
   y="0" /> <rect
   id="XMLID_1637_"
   y="330"
   style="fill:#8f8f8f"
   width="40"
   height="30"
   x="0" /> <circle
   id="XMLID_1638_"
   style="fill:#bbc3ec"
   cx="90"
   cy="330"
   r="20" /> <circle
   id="XMLID_1639_"
   style="fill:#bbc3ec"
   cx="160"
   cy="330"
   r="20" /> <circle
   id="XMLID_1640_"
   style="fill:#121226"
   cx="300"
   cy="330"
   r="20" /> <circle
   id="XMLID_1641_"
   style="fill:#121226"
   cx="370"
   cy="330"
   r="20" /> <path
   id="XMLID_1642_"
   style="fill:#121226"
   d="m 250,330 c 0,-11.05 -8.95,-20 -20,-20 v 40 c 11.05,0 20,-8.95 20,-20 z" /> <path
   id="XMLID_1643_"
   style="fill:#bbc3ec"
   d="m 210,330 c 0,11.05 8.95,20 20,20 v -40 c -11.05,0 -20,8.95 -20,20 z" /> </g> </g>

</svg>
