<?xml version="1.0" encoding="UTF-8" standalone="no"?>
<svg
   version="1.0"
   width="368.000000pt"
   height="368.000000pt"
   viewBox="0 0 368.000000 368.000000"
   preserveAspectRatio="xMidYMid meet"
   id="svg4"
   sodipodi:docname="mission2.svg"
   inkscape:version="1.3.2 (091e20e, 2023-11-25, custom)"
   xmlns:inkscape="http://www.inkscape.org/namespaces/inkscape"
   xmlns:sodipodi="http://sodipodi.sourceforge.net/DTD/sodipodi-0.dtd"
   xmlns="http://www.w3.org/2000/svg"
   xmlns:svg="http://www.w3.org/2000/svg">
  <defs
     id="defs4" />
  <sodipodi:namedview
     id="namedview4"
     pagecolor="#ffffff"
     bordercolor="#000000"
     borderopacity="0.25"
     inkscape:showpageshadow="2"
     inkscape:pageopacity="0.0"
     inkscape:pagecheckerboard="0"
     inkscape:deskcolor="#d1d1d1"
     inkscape:document-units="pt"
     inkscape:zoom="1.3063859"
     inkscape:cx="82.288092"
     inkscape:cy="136.63651"
     inkscape:window-width="1600"
     inkscape:window-height="837"
     inkscape:window-x="-8"
     inkscape:window-y="-8"
     inkscape:window-maximized="1"
     inkscape:current-layer="svg4" />
  <g
     transform="matrix(0.10038185,0,0,-0.10035472,-0.20704653,368.30183)"
     fill="#000000"
     stroke="none"
     id="g4"
     style="fill:#1d1d1f;fill-opacity:1">
    <path
       d="m 2991,3436 -234,-234 -34,-252 c -19,-138 -32,-254 -30,-257 3,-3 119,11 258,30 l 252,35 236,236 c 129,129 232,238 229,241 -3,4 -75,32 -160,64 l -153,58 -33,89 c -65,176 -84,224 -90,224 -4,0 -112,-105 -241,-234 z"
       id="path1"
       style="fill:#1d1d1f;fill-opacity:1" />
    <path
       d="M 1476,3395 C 1215,3358 967,3263 755,3120 488,2940 259,2662 135,2369 -76,1869 -34,1288 248,825 642,176 1404,-132 2146,59 c 502,129 947,523 1142,1012 147,371 161,788 37,1164 -32,100 -91,238 -120,281 l -13,21 -202,-28 c -111,-15 -204,-30 -206,-32 -3,-3 10,-29 29,-58 213,-333 265,-751 142,-1126 C 2795,812 2384,472 1871,399 1767,384 1543,393 1440,415 825,549 390,1083 390,1705 c 0,306 108,609 299,835 25,30 50,61 56,68 24,31 174,156 235,196 333,220 761,277 1137,151 108,-36 214,-86 302,-142 29,-19 55,-32 58,-30 2,3 17,96 32,207 l 27,202 -20,14 c -86,56 -307,136 -470,170 -154,32 -418,41 -570,19 z"
       id="path2"
       style="fill:#1d1d1f;fill-opacity:1" />
    <path
       d="m 1595,2799 c -169,-15 -381,-95 -522,-195 -235,-167 -396,-419 -449,-701 -24,-130 -15,-354 20,-483 104,-378 397,-670 782,-777 92,-26 111,-28 284,-27 156,0 197,4 262,22 321,88 573,292 714,577 67,136 101,256 113,392 24,272 -56,555 -212,756 l -30,39 -137,-137 -137,-137 33,-56 c 163,-271 125,-622 -93,-852 -81,-87 -155,-136 -263,-176 -171,-65 -332,-66 -501,-4 -177,64 -330,208 -406,381 -84,191 -74,435 24,622 50,95 183,230 276,282 122,67 204,88 347,89 105,1 137,-3 200,-23 77,-24 155,-60 201,-92 l 25,-18 138,138 138,139 -53,40 c -64,48 -209,122 -294,150 -138,46 -308,65 -460,51 z"
       id="path3"
       style="fill:#1d1d1f;fill-opacity:1" />
    <path
       d="m 1581,2184 c -80,-21 -163,-69 -224,-130 -152,-151 -189,-383 -91,-577 39,-76 145,-177 226,-216 341,-162 732,103 705,479 -5,76 -37,182 -63,210 -12,13 -36,-7 -182,-153 l -167,-167 -78,77 -78,77 165,165 c 91,92 166,169 166,173 0,12 -80,50 -135,64 -64,18 -175,17 -244,-2 z"
       id="path4"
       style="fill:#1d1d1f;fill-opacity:1" />
  </g>
</svg>
