<?xml version="1.0" encoding="UTF-8" standalone="no"?>
<svg
   version="1.0"
   width="50pt"
   height="50pt"
   viewBox="0 0 50 50"
   preserveAspectRatio="xMidYMid"
   id="svg2"
   sodipodi:docname="press-tool.svg"
   inkscape:version="1.3.2 (091e20e, 2023-11-25, custom)"
   xmlns:inkscape="http://www.inkscape.org/namespaces/inkscape"
   xmlns:sodipodi="http://sodipodi.sourceforge.net/DTD/sodipodi-0.dtd"
   xmlns="http://www.w3.org/2000/svg"
   xmlns:svg="http://www.w3.org/2000/svg">
  <defs
     id="defs2" />
  <sodipodi:namedview
     id="namedview2"
     pagecolor="#ffffff"
     bordercolor="#000000"
     borderopacity="0.25"
     inkscape:showpageshadow="2"
     inkscape:pageopacity="0.0"
     inkscape:pagecheckerboard="0"
     inkscape:deskcolor="#d1d1d1"
     inkscape:document-units="pt"
     inkscape:zoom="5.0049902"
     inkscape:cx="95.904284"
     inkscape:cy="48.651444"
     inkscape:window-width="1600"
     inkscape:window-height="837"
     inkscape:window-x="-8"
     inkscape:window-y="-8"
     inkscape:window-maximized="1"
     inkscape:current-layer="svg2" />
  <g
     transform="matrix(0.00975669,0,0,-0.00975669,0.02683269,46.338576)"
     fill="#000000"
     stroke="none"
     id="g2">
    <path
       d="m 2410,4735 c -227,-46 -422,-198 -525,-410 -42,-88 -64,-174 -72,-281 l -6,-84 h -223 -224 v 49 c 0,53 -25,99 -73,135 -28,21 -39,21 -529,24 -487,2 -502,2 -542,-18 -22,-11 -50,-33 -61,-48 -20,-26 -20,-45 -23,-807 -2,-764 -2,-781 18,-813 40,-65 64,-72 263,-72 h 177 v -535 -534 l -247,-3 C -25,1334 -2,1368 2,843 5,470 5,465 27,434 c 50,-70 -173,-64 2533,-64 2706,0 2483,-6 2533,64 22,31 22,36 25,409 3,419 2,424 -62,470 -30,21 -41,22 -278,25 l -248,3 v 534 535 h 178 c 198,0 222,7 262,72 20,32 20,49 18,813 -3,762 -3,781 -23,807 -11,15 -39,37 -61,48 -40,20 -55,20 -542,18 -490,-3 -501,-3 -529,-24 -48,-36 -73,-82 -73,-135 v -49 h -224 -223 l -6,88 c -15,189 -89,353 -220,485 -174,173 -434,251 -677,202 z M 1810,3440 v -220 h 750 750 v 220 220 h 225 225 v -567 c 0,-633 -2,-613 69,-660 32,-22 43,-23 217,-23 h 184 V 1875 1340 H 2560 890 v 535 535 h 184 c 174,0 185,1 217,23 71,47 69,27 69,660 v 567 h 225 225 z"
       id="path1" />
    <path
       d="m 2002,2666 c 3,-289 4,-290 88,-333 40,-21 59,-23 182,-23 h 137 l 3,-254 c 3,-241 4,-256 24,-283 65,-86 183,-86 248,0 20,27 21,42 24,283 l 3,254 h 137 c 123,0 142,2 182,23 84,43 85,44 88,333 l 3,254 h -561 -561 z"
       id="path2" />
  </g>
</svg>
