<?xml version="1.0" encoding="UTF-8" standalone="no"?>
<svg
   version="1.0"
   width="50pt"
   height="50pt"
   viewBox="0 0 50 50"
   preserveAspectRatio="xMidYMid"
   id="svg1"
   sodipodi:docname="spm.svg"
   inkscape:version="1.3.2 (091e20e, 2023-11-25, custom)"
   xmlns:inkscape="http://www.inkscape.org/namespaces/inkscape"
   xmlns:sodipodi="http://sodipodi.sourceforge.net/DTD/sodipodi-0.dtd"
   xmlns="http://www.w3.org/2000/svg"
   xmlns:svg="http://www.w3.org/2000/svg">
  <defs
     id="defs1" />
  <sodipodi:namedview
     id="namedview1"
     pagecolor="#ffffff"
     bordercolor="#000000"
     borderopacity="0.25"
     inkscape:showpageshadow="2"
     inkscape:pageopacity="0.0"
     inkscape:pagecheckerboard="0"
     inkscape:deskcolor="#d1d1d1"
     inkscape:document-units="pt"
     inkscape:zoom="5.0049902"
     inkscape:cx="58.641474"
     inkscape:cy="35.464605"
     inkscape:window-width="1600"
     inkscape:window-height="837"
     inkscape:window-x="-8"
     inkscape:window-y="-8"
     inkscape:window-maximized="1"
     inkscape:current-layer="svg1" />
  <g
     transform="matrix(0.00962641,0,0,-0.00962641,0.7414468,49.646786)"
     fill="#000000"
     stroke="none"
     id="g1">
    <path
       d="m 1225,4935 -25,-24 v -976 -975 h -85 c -47,0 -85,4 -85,9 0,5 -13,128 -30,274 -31,284 -39,315 -97,369 -61,58 -102,68 -287,68 -104,0 -184,-5 -210,-12 -55,-16 -138,-99 -154,-154 -17,-59 -17,-1369 0,-1428 17,-58 99,-138 159,-155 32,-9 102,-12 230,-9 181,3 185,3 232,31 68,40 101,91 127,197 l 22,90 h 169 169 v -680 c 0,-623 -1,-680 -16,-680 -77,0 -189,-88 -212,-166 -16,-55 -16,-333 0,-388 16,-55 99,-138 154,-154 32,-9 336,-12 1276,-12 1397,0 1294,-6 1371,80 59,65 67,100 67,280 0,180 -8,215 -67,280 -42,46 -107,80 -155,80 -17,0 -18,29 -18,680 v 680 h 55 c 46,0 60,4 80,25 14,13 25,31 25,40 0,13 18,15 120,15 h 120 v -56 c 0,-31 5,-75 12,-98 16,-55 99,-138 154,-154 61,-18 260,-16 317,4 57,19 128,93 145,152 17,56 17,1608 0,1664 -17,59 -88,133 -145,152 -57,20 -256,22 -317,4 -55,-16 -138,-99 -154,-154 -9,-30 -12,-160 -12,-458 v -416 h -120 -120 v 736 c 0,549 -3,747 -12,778 -16,55 -99,138 -154,154 -26,7 -108,12 -218,12 h -176 v 56 c 0,31 -5,75 -12,98 -16,55 -99,138 -154,154 -59,17 -1209,17 -1268,0 -55,-16 -138,-99 -154,-154 -7,-26 -12,-108 -12,-218 v -176 h -40 -40 v 255 256 l -25,24 c -24,25 -26,25 -215,25 -189,0 -191,0 -215,-25 z m 295,-335 v -200 h -57 c -32,0 -68,-3 -80,-6 l -23,-6 v 206 206 h 80 80 z m 1655,175 25,-24 v -336 -335 h -159 -159 l -4,163 -3,162 -34,63 c -37,69 -80,109 -151,144 -66,32 -196,31 -265,-2 -64,-31 -124,-91 -155,-155 -22,-46 -25,-64 -28,-212 l -4,-163 h -159 -159 v 335 336 l 25,24 24,25 h 591 591 z m -527,-322 c 62,-46 67,-62 70,-224 l 3,-149 h -160 -161 v 134 c 0,74 5,147 11,163 14,37 47,72 84,89 40,19 119,12 153,-13 z m 1087,2 c 25,-24 25,-27 25,-200 v -175 h -200 -200 v 200 200 h 175 c 173,0 176,0 200,-25 z M 1760,4160 v -80 h -200 -200 v 55 c 0,46 4,60 25,80 24,25 27,25 200,25 h 175 z m 0,-800 v -560 h -200 -200 v 560 560 h 200 200 z m 1440,0 v -560 h -640 -640 v 560 560 h 640 640 z m 560,0 v -560 h -200 -200 v 560 560 h 200 200 z m 855,455 25,-24 v -791 -791 l -25,-24 c -23,-24 -31,-25 -135,-25 -104,0 -112,1 -135,25 l -25,24 v 791 791 l 25,24 c 23,24 31,25 135,25 104,0 112,-1 135,-25 z M 786,3497 c 26,-23 28,-29 60,-313 30,-259 33,-318 34,-572 0,-271 -1,-288 -25,-385 -37,-149 -35,-147 -241,-147 -162,0 -165,0 -189,25 l -25,24 v 671 671 l 25,24 c 23,24 28,25 179,25 148,0 156,-1 182,-23 z m 414,-897 v -200 h -80 -80 v 200 200 h 80 80 z m 2960,40 v -160 h -120 -120 v 160 160 h 120 120 z M 1760,2520 v -120 h -200 -200 v 120 120 h 200 200 z m 1440,0 v -120 h -640 -640 v 120 120 h 640 640 z m 560,0 v -120 h -200 -200 v 120 120 h 200 200 z M 1680,1560 V 880 h -80 -80 v 680 680 h 80 80 z m 320,505 c 0,-173 0,-176 25,-200 22,-23 32,-25 120,-25 h 95 v -175 c 0,-173 0,-176 25,-200 13,-14 31,-25 40,-25 13,0 15,-24 15,-175 0,-239 -15,-225 240,-225 255,0 240,-14 240,225 0,151 2,175 15,175 9,0 27,11 40,25 25,24 25,27 25,200 v 175 h 95 c 88,0 98,2 120,25 25,24 25,27 25,200 v 175 h 80 80 V 1560 880 h -720 -720 v 680 680 h 80 80 z m 960,55 v -120 h -400 -400 v 120 120 h 400 400 z m 640,-560 V 880 h -80 -80 v 680 680 h 80 80 z m -880,160 v -120 h -160 -160 v 120 120 h 160 160 z m -80,-400 v -120 h -80 -80 v 120 120 h 80 80 z M 3815,695 c 24,-23 25,-28 25,-175 0,-147 -1,-152 -25,-175 l -24,-25 H 2560 1329 l -24,25 c -24,23 -25,28 -25,175 0,147 1,152 25,175 l 24,25 h 1231 1231 z"
       id="path1" />
  </g>
</svg>
