<?xml version="1.0" encoding="UTF-8" standalone="no"?>
<svg
   version="1.0"
   width="368.000000pt"
   height="368.000000pt"
   viewBox="0 0 368.000000 368.000000"
   preserveAspectRatio="xMidYMid meet"
   id="svg4"
   sodipodi:docname="vision2.svg"
   inkscape:version="1.3.2 (091e20e, 2023-11-25, custom)"
   xmlns:inkscape="http://www.inkscape.org/namespaces/inkscape"
   xmlns:sodipodi="http://sodipodi.sourceforge.net/DTD/sodipodi-0.dtd"
   xmlns="http://www.w3.org/2000/svg"
   xmlns:svg="http://www.w3.org/2000/svg">
  <defs
     id="defs4" />
  <sodipodi:namedview
     id="namedview4"
     pagecolor="#ffffff"
     bordercolor="#000000"
     borderopacity="0.25"
     inkscape:showpageshadow="2"
     inkscape:pageopacity="0.0"
     inkscape:pagecheckerboard="0"
     inkscape:deskcolor="#d1d1d1"
     inkscape:document-units="pt"
     inkscape:zoom="0.65319294"
     inkscape:cx="159.98336"
     inkscape:cy="329.91784"
     inkscape:window-width="1600"
     inkscape:window-height="837"
     inkscape:window-x="-8"
     inkscape:window-y="-8"
     inkscape:window-maximized="1"
     inkscape:current-layer="svg4" />
  <g
     transform="matrix(0.10002,0,0,-0.10070344,0,369.4054)"
     fill="#000000"
     stroke="none"
     id="g4"
     style="fill:#1d1d1f;fill-opacity:1">
    <path
       d="m 2854,3651 c -74,-34 -111,-106 -100,-194 l 7,-51 -147,-147 -148,-148 -57,6 c -73,7 -134,-20 -174,-77 l -28,-40 h -103 -103 l -16,29 c -8,17 -32,43 -52,58 -31,24 -46,28 -98,28 -76,0 -125,-29 -156,-93 -18,-36 -21,-55 -16,-105 l 6,-62 -151,-152 -152,-152 -61,6 c -104,9 -176,-43 -194,-142 -5,-25 -10,-47 -12,-49 -2,-1 -55,-26 -116,-56 l -113,-53 -51,27 c -67,37 -132,33 -186,-10 -54,-44 -75,-89 -70,-152 6,-83 65,-145 151,-157 83,-13 178,53 191,132 3,21 10,45 14,53 4,8 60,38 123,68 l 116,54 38,-26 c 57,-38 136,-37 192,4 59,43 75,79 69,159 l -4,66 154,156 155,156 40,-9 c 25,-5 54,-5 79,2 43,12 105,60 114,91 6,17 16,19 115,19 h 108 l 22,-34 c 39,-64 117,-96 188,-77 89,25 138,98 129,195 l -6,61 145,145 144,146 79,-1 c 65,0 84,4 107,21 42,31 65,67 71,112 12,89 -24,158 -102,193 -51,23 -89,23 -141,0 z"
       id="path1"
       style="fill:#1d1d1f;fill-opacity:1" />
    <path
       d="m 2752,2854 -22,-15 v -639 c 0,-351 -4,-641 -9,-644 -4,-3 -39,8 -77,24 l -69,29 -5,511 c -5,560 -1,523 -66,536 -17,3 -91,4 -163,2 -126,-3 -134,-4 -152,-27 -18,-22 -19,-45 -19,-468 v -445 l -27,6 c -16,3 -49,8 -75,12 l -47,6 -3,310 c -3,293 -4,310 -22,324 -15,11 -58,14 -182,14 -138,0 -164,-2 -175,-17 -11,-12 -15,-84 -19,-327 l -5,-310 -65,-12 c -36,-7 -68,-13 -72,-13 -3,-1 -8,84 -10,189 -3,166 -5,192 -21,207 -16,16 -38,18 -183,18 -152,0 -167,-2 -180,-19 -11,-16 -14,-71 -14,-277 v -256 l -72,-31 c -40,-16 -76,-28 -80,-25 -5,2 -8,73 -8,158 0,126 -3,156 -16,169 -13,13 -44,16 -178,16 -145,0 -165,-2 -179,-18 -15,-16 -17,-51 -17,-284 V 1292 L 352,1180 C 260,1118 143,1036 92,998 6,933 0,926 0,893 0,863 8,850 42,817 282,593 549,409 845,265 c 692,-339 1331,-335 2025,14 275,139 506,297 728,498 105,96 106,105 16,190 -85,80 -271,225 -396,309 l -98,65 v 749 749 l -22,15 c -18,13 -53,16 -173,16 -120,0 -155,-3 -173,-16 z M 1987,1554 c 407,-84 645,-503 509,-894 -48,-136 -132,-247 -248,-327 -265,-183 -592,-175 -848,22 -109,84 -199,223 -236,365 -22,86 -23,245 -1,330 64,250 269,446 527,505 78,18 208,18 297,-1 z"
       id="path2"
       style="fill:#1d1d1f;fill-opacity:1" />
    <path
       d="m 1725,1450 c -216,-44 -397,-213 -451,-421 -76,-295 96,-600 391,-691 97,-30 243,-30 340,0 98,30 187,86 260,164 163,172 198,416 94,635 -41,86 -157,204 -246,251 -116,61 -270,85 -388,62 z m 241,-355 c 127,-79 153,-262 53,-370 -60,-65 -114,-88 -198,-83 -133,7 -222,96 -229,228 -6,110 37,188 133,239 32,17 54,21 116,19 64,-3 83,-8 125,-33 z"
       id="path3"
       style="fill:#1d1d1f;fill-opacity:1" />
    <path
       d="m 1763,1000 c -88,-53 -82,-190 10,-233 43,-21 77,-21 122,-3 91,39 98,184 11,237 -40,24 -102,24 -143,-1 z"
       id="path4"
       style="fill:#1d1d1f;fill-opacity:1" />
  </g>
</svg>
